<svg xmlns="http://www.w3.org/2000/svg"
  viewBox="-0.001293182373046875 0.002758026123046875 99.85157775878906 99.99821472167969">
  <g fill-rule="evenodd">
    <path
      d="M46.48 18.63l1.23-.71.62-.35.49-.27C81.4-.63 110.38 7.82 87.5 44.17c-.64 1-1.33 2.08-2.06 3.15-.86-1.47-1.76-2.94-2.73-4.41l-.34-.68q1-1.53 1.86-2.91c12.24-21-17.45-17.65-50.13 3.41l-1-2a29.42 29.42 0 0 1-1.46-3.48c-.79-2.27-1.44-4.44-1.93-6.47a112.67 112.67 0 0 1 12.8-9.7l1.49-.94.62-.38c.62-.39 1.23-.76 1.85-1.12zM18.59 53.76a109.86 109.86 0 0 0 12.85 17.76 47.53 47.53 0 0 0 8.69-3.3l2.92-1.46a141.32 141.32 0 0 1-13.54-26.32 74.21 74.21 0 0 1-3.22-10.75C23.38 15.68 28 8.86 41.72 17.92q2.53-1.61 5.11-3.05C10.23-9.6.2 16.24 15.34 47.61q1.47 3.05 3.25 6.15zm51.86 16.73c-.32-1.29-.71-2.69-1.19-4.23a48.42 48.42 0 0 0-2.76-6.82l-.45-.89c-34.1 22-64.95 24.71-48.27.51a94.943 94.943 0 0 1-3.12-5c-25.42 37.37.92 47.55 32.69 32a98.59 98.59 0 0 0 11.13-6.41 111 111 0 0 0 11.97-9.16zm11.11-23a110.89 110.89 0 0 0-12.84-17.74q-2.58.7-5.51 1.72l-6.1 3A141.2 141.2 0 0 1 70.7 61c.07.19.14.37.2.56s.19.49.27.73.2.56.29.83c.34 1 .65 1.91.93 2.83.06.18.11.36.16.54l.14.47c.06.22.13.44.19.65.05.17.1.34.14.51.33 1.21.61 2.37.84 3.49 2.91 14-1.73 20.8-15.42 11.75l-5.11 3C89.93 110.87 100 85 84.82 53.67q-1.47-3.04-3.26-6.14z"
      fill="#115fbf"></path>
    <path
      d="M49 13.47l-.48.27c-1.19-.79-2.35-1.53-3.48-2.21.61-.38 1.22-.75 1.83-1.1l1.23-.7.62-.36.49-.27C75.2-5.2 98.87-2.75 95.86 17.22 94.9 1.36 72.93.31 49 13.47zM10 53.22c.65 1.12 1.33 2.24 2 3.37.67-1.07 1.38-2.16 2.14-3.28q-1.74-3-3.18-6C.34 25.12 2.21 5.71 17.15 4.88-1.61 2.1-4.85 23 6.79 47.07q1.47 3.05 3.26 6.15zm37 36.6c-20.31 9.93-38.39 9.36-42.17-2.1 1.39 14.46 20.81 16.06 42.85 5.28 2.33-1.14 4.68-2.41 7.06-3.83q-1.43-.87-2.91-1.86-2.41 1.34-4.83 2.51zM93 54.1q-1.47-3-3.26-6.14l-1-1.67-.11.17c-.63 1-1.31 2-2 3.08.8 1.46 1.55 2.92 2.25 4.36 10.71 22.19 8.82 41.62-6.17 42.41C101.47 99 104.69 78.19 93.06 54.1z"
      fill="#0ab1ec"></path>
  </g>
</svg>