<?xml version="1.0" standalone="no"?><!DOCTYPE svg PUBLIC "-//W3C//DTD SVG 1.1//EN" "http://www.w3.org/Graphics/SVG/1.1/DTD/svg11.dtd"><svg t="1673461022021" class="icon" viewBox="0 0 1024 1024" version="1.1" xmlns="http://www.w3.org/2000/svg" p-id="5368" xmlns:xlink="http://www.w3.org/1999/xlink" width="200" height="200"><path d="M224 736c-9.6 0-19.2-6.4-25.6-12.8l-128-192c-6.4-9.6-6.4-25.6 0-35.2l128-192c9.6-16 28.8-19.2 44.8-9.6 16 9.6 19.2 28.8 9.6 44.8L134.4 512l115.2 172.8c9.6 16 6.4 35.2-9.6 44.8-3.2 3.2-9.6 6.4-16 6.4zM800 736c-6.4 0-12.8-3.2-19.2-6.4-16-9.6-19.2-28.8-9.6-44.8l115.2-172.8-115.2-172.8c-9.6-16-6.4-35.2 9.6-44.8 16-9.6 35.2-6.4 44.8 9.6l128 192c6.4 9.6 6.4 25.6 0 35.2l-128 192c-6.4 6.4-16 12.8-25.6 12.8zM288 896c-6.4 0-12.8-3.2-16-6.4-16-9.6-19.2-28.8-9.6-44.8l448-704c9.6-16 28.8-19.2 44.8-9.6 16 9.6 19.2 28.8 9.6 44.8l-448 704c-6.4 9.6-19.2 16-28.8 16z" fill="#040000" p-id="5369"></path></svg>