<svg height="1024" viewBox="0 0 1024 1024" width="1024" xmlns="http://www.w3.org/2000/svg" xmlns:xlink="http://www.w3.org/1999/xlink"><linearGradient id="a"><stop offset="0" stop-color="#72bffd"/><stop offset="1" stop-color="#0242a1"/></linearGradient><linearGradient id="b" gradientUnits="userSpaceOnUse" x1="568.15997" x2="712.59998" xlink:href="#a" y1="383.87" y2="508.04001"/><linearGradient id="c" gradientUnits="userSpaceOnUse" x1="566.51001" x2="710.95001" xlink:href="#a" y1="385.79001" y2="509.95999"/><path d="m686.1 451.59c6.83941-6.82859 6.83941-17.91141 0-24.74-6.83203-6.84055-17.91797-6.84055-24.75 0l-45.83 45.84c-20.78788 21.5499-55.20813 21.863-76.38463.6949-21.17649-21.16811-20.87703-55.58848.66463-76.3849l58.2-58.24c10.13-10.11 26-17.76 40-19.76 0 0 15-3 38-1-12-14-28-21-49-21-16.89 0-27 1.53-38.59 7.51-8.02164 4.20576-15.3448 9.62645-21.71 16.07l-51.65 51.64c-34.07905 34.65981-35.08146 89.4876-.71082 123.85824 34.37063 34.37063 91.26101 35.43081 125.92082 1.35176z" fill="url(#b)" transform="matrix(3.0570492 0 0 3.0570492 -1406.403964672 -823.7647104)"/><path d="m738.85 374.73c-35.13213-33.97268-91.13299-33.10039-125.19 1.95l-45.12 46.55c-6.7301 6.9354-6.55993 18.01457.38 24.74 6.93881 6.73123 18.02111 6.56108 24.75-.38l45.12-46.59c20.52168-21.54131 54.66962-22.22014 76.03122-1.5115 21.3616 20.70863 21.74284 54.86119.84878 76.0415l-57.31 59.11c-10 10.27-25.7 18.16-39.67 20.38 0 0-15 3.23-38 1.59 12.24 13.85 28.31 20.6 49.31 20.27 16.89-.26 27-2 38.47-8.11 7.98274-4.31859 15.24604-9.85124 21.53-16.4l50.01497-53.26503c33.96301-35.14647 33.89788-90.32564-1.16497-124.37497z" fill="url(#c)" transform="matrix(3.0570492 0 0 3.0570492 -1406.403964672 -823.7647104)"/></svg>