<?xml version="1.0" encoding="UTF-8" standalone="no"?>
<svg
   viewBox="-0.001293182373046875 0.002758026123046875 99.85157775878906 99.99821472167969"
   version="1.1"
   id="svg2"
   sodipodi:docname="logo.svg"
   inkscape:version="1.3 (0e150ed, 2023-07-21)"
   xmlns:inkscape="http://www.inkscape.org/namespaces/inkscape"
   xmlns:sodipodi="http://sodipodi.sourceforge.net/DTD/sodipodi-0.dtd"
   xmlns="http://www.w3.org/2000/svg"
   xmlns:svg="http://www.w3.org/2000/svg">
  <defs
     id="defs2">
    <inkscape:path-effect
       effect="powerclip"
       id="path-effect6"
       is_visible="true"
       lpeversion="1"
       inverse="true"
       flatten="false"
       hide_clip="false" />
    <clipPath
       clipPathUnits="userSpaceOnUse"
       id="clipPath6">
      <ellipse
         style="display:none;opacity:1;fill:#ffffff;fill-opacity:1;stroke-width:1.1809"
         id="ellipse6"
         cx="45.187405"
         cy="47.149673"
         rx="1.9505062"
         ry="1.890739"
         d="m 47.137911,47.149673 a 1.9505062,1.890739 0 0 1 -1.950506,1.890739 1.9505062,1.890739 0 0 1 -1.950507,-1.890739 1.9505062,1.890739 0 0 1 1.950507,-1.890739 1.9505062,1.890739 0 0 1 1.950506,1.890739 z" />
      <path
         id="lpe_path-effect6"
         style="opacity:1;fill:#ffffff;fill-opacity:1;stroke-width:1.1809"
         class="powerclip"
         d="M 35.407015,36.685566 H 63.611738 V 64.332462 H 35.407015 Z m 11.730896,10.464107 a 1.9505062,1.890739 0 0 0 -1.950506,-1.890739 1.9505062,1.890739 0 0 0 -1.950507,1.890739 1.9505062,1.890739 0 0 0 1.950507,1.890739 1.9505062,1.890739 0 0 0 1.950506,-1.890739 z" />
    </clipPath>
  </defs>
  <g
     fill-rule="evenodd"
     id="g2"
     transform="matrix(0.76903115,0,0,0.79334063,11.531004,10.333356)">
    <path
       d="m 46.48,18.63 1.23,-0.71 0.62,-0.35 0.49,-0.27 C 81.4,-0.63 110.38,7.82 87.5,44.17 c -0.64,1 -1.33,2.08 -2.06,3.15 -0.86,-1.47 -1.76,-2.94 -2.73,-4.41 l -0.34,-0.68 q 1,-1.53 1.86,-2.91 C 96.47,18.32 66.78,21.67 34.1,42.73 l -1,-2 A 29.42,29.42 0 0 1 31.64,37.25 C 30.85,34.98 30.2,32.81 29.71,30.78 a 112.67,112.67 0 0 1 12.8,-9.7 L 44,20.14 44.62,19.76 C 45.24,19.37 45.85,19 46.47,18.64 Z M 18.59,53.76 a 109.86,109.86 0 0 0 12.85,17.76 47.53,47.53 0 0 0 8.69,-3.3 l 2.92,-1.46 A 141.32,141.32 0 0 1 29.51,40.44 74.21,74.21 0 0 1 26.29,29.69 C 23.38,15.68 28,8.86 41.72,17.92 q 2.53,-1.61 5.11,-3.05 C 10.23,-9.6 0.2,16.24 15.34,47.61 q 1.47,3.05 3.25,6.15 z M 70.45,70.49 C 70.13,69.2 69.74,67.8 69.26,66.26 A 48.42,48.42 0 0 0 66.5,59.44 l -0.45,-0.89 c -34.1,22 -64.95,24.71 -48.27,0.51 a 94.943,94.943 0 0 1 -3.12,-5 c -25.42,37.37 0.92,47.55 32.69,32 a 98.59,98.59 0 0 0 11.13,-6.41 111,111 0 0 0 11.97,-9.16 z m 11.11,-23 A 110.89,110.89 0 0 0 68.72,29.75 q -2.58,0.7 -5.51,1.72 l -6.1,3 A 141.2,141.2 0 0 1 70.7,61 c 0.07,0.19 0.14,0.37 0.2,0.56 0.06,0.19 0.19,0.49 0.27,0.73 0.08,0.24 0.2,0.56 0.29,0.83 0.34,1 0.65,1.91 0.93,2.83 0.06,0.18 0.11,0.36 0.16,0.54 l 0.14,0.47 c 0.06,0.22 0.13,0.44 0.19,0.65 0.05,0.17 0.1,0.34 0.14,0.51 0.33,1.21 0.61,2.37 0.84,3.49 2.91,14 -1.73,20.8 -15.42,11.75 l -5.11,3 C 89.93,110.87 100,85 84.82,53.67 q -1.47,-3.04 -3.26,-6.14 z"
       fill="#115fbf"
       id="path1" />
    <path
       d="m 49,13.47 -0.48,0.27 c -1.19,-0.79 -2.35,-1.53 -3.48,-2.21 0.61,-0.38 1.22,-0.75 1.83,-1.1 L 48.1,9.73 48.72,9.37 49.21,9.1 C 75.2,-5.2 98.87,-2.75 95.86,17.22 94.9,1.36 72.93,0.31 49,13.47 Z M 10,53.22 c 0.65,1.12 1.33,2.24 2,3.37 0.67,-1.07 1.38,-2.16 2.14,-3.28 q -1.74,-3 -3.18,-6 C 0.34,25.12 2.21,5.71 17.15,4.88 -1.61,2.1 -4.85,23 6.79,47.07 q 1.47,3.05 3.26,6.15 z m 37,36.6 c -20.31,9.93 -38.39,9.36 -42.17,-2.1 1.39,14.46 20.81,16.06 42.85,5.28 2.33,-1.14 4.68,-2.41 7.06,-3.83 Q 53.31,88.3 51.83,87.31 49.42,88.65 47,89.82 Z M 93,54.1 q -1.47,-3 -3.26,-6.14 l -1,-1.67 -0.11,0.17 c -0.63,1 -1.31,2 -2,3.08 0.8,1.46 1.55,2.92 2.25,4.36 C 99.59,76.09 97.7,95.52 82.71,96.31 101.47,99 104.69,78.19 93.06,54.1 Z"
       fill="#0ab1ec"
       id="path2" />
    <path
       style="opacity:1;fill:#0ab1ec;fill-opacity:1;stroke-width:0.993568"
       id="path3"
       clip-path="url(#clipPath6)"
       inkscape:path-effect="#path-effect6"
       sodipodi:type="arc"
       sodipodi:cx="49.509377"
       sodipodi:cy="50.509014"
       sodipodi:rx="9.1023617"
       sodipodi:ry="8.8234482"
       d="m 58.611738,50.509014 a 9.1023617,8.8234482 0 0 1 -9.102361,8.823448 9.1023617,8.8234482 0 0 1 -9.102362,-8.823448 9.1023617,8.8234482 0 0 1 9.102362,-8.823448 9.1023617,8.8234482 0 0 1 9.102361,8.823448 z" />
  </g>
</svg>
