<?xml version="1.0" encoding="UTF-8" standalone="no"?>
<svg
   viewBox="0 0 1024 1024"
   version="1.1"
   id="svg2"
   sodipodi:docname="logo.svg"
   inkscape:export-filename="logo.svg"
   inkscape:export-xdpi="96"
   inkscape:export-ydpi="96"
   width="1024"
   height="1024"
   inkscape:version="1.3 (0e150ed, 2023-07-21)"
   xmlns:inkscape="http://www.inkscape.org/namespaces/inkscape"
   xmlns:sodipodi="http://sodipodi.sourceforge.net/DTD/sodipodi-0.dtd"
   xmlns="http://www.w3.org/2000/svg"
   xmlns:svg="http://www.w3.org/2000/svg">
  <sodipodi:namedview
     id="namedview2"
     pagecolor="#ffffff"
     bordercolor="#000000"
     borderopacity="0.25"
     inkscape:showpageshadow="2"
     inkscape:pageopacity="0.0"
     inkscape:pagecheckerboard="0"
     inkscape:deskcolor="#d1d1d1"
     showgrid="false"
     inkscape:export-bgcolor="#ffffffff"
     inkscape:zoom="0.28035679"
     inkscape:cx="518.98154"
     inkscape:cy="502.93057"
     inkscape:window-width="1920"
     inkscape:window-height="1027"
     inkscape:window-x="1512"
     inkscape:window-y="25"
     inkscape:window-maximized="1"
     inkscape:current-layer="g2" />
  <defs
     id="defs1">
    <linearGradient
       id="a56fad6dd-800d-41d1-9770-cc637af349a1"
       x1="568.15997"
       y1="383.87"
       x2="712.59998"
       y2="508.04001"
       gradientUnits="userSpaceOnUse">
      <stop
         offset="0"
         stop-color="#1cd9fd"
         id="stop1"
         style="stop-color:#72bffd;stop-opacity:1;" />
      <stop
         offset="1"
         stop-color="#015ba6"
         id="stop2"
         style="stop-color:#0242a1;stop-opacity:1;" />
    </linearGradient>
    <linearGradient
       id="bc84bbc18-54ca-4103-bf4c-fb70d87e6e75"
       x1="566.51001"
       y1="385.79001"
       x2="710.95001"
       y2="509.95999"
       gradientUnits="userSpaceOnUse">
      <stop
         offset="0"
         stop-color="#1cd9fd"
         id="stop3"
         style="stop-color:#72bffd;stop-opacity:1;" />
      <stop
         offset="1"
         stop-color="#015ba6"
         id="stop4"
         style="stop-color:#0242a1;stop-opacity:1;" />
    </linearGradient>
  </defs>
  <g
     transform="matrix(3.0570492,0,0,3.0570492,88.982222,84.178902)"
     id="g2"
     inkscape:label="g2">
    <path
       d="m 686.1,451.59 c 6.83941,-6.82859 6.83941,-17.91141 0,-24.74 -6.83203,-6.84055 -17.91797,-6.84055 -24.75,0 l -45.83,45.84 c -20.78788,21.5499 -55.20813,21.863 -76.38463,0.6949 C 517.95888,452.21679 518.25834,417.79642 539.8,397 L 598,338.76 C 608.13,328.65 624,321 638,319 c 0,0 15,-3 38,-1 -12,-14 -28,-21 -49,-21 -16.89,0 -27,1.53 -38.59,7.51 -8.02164,4.20576 -15.3448,9.62645 -21.71,16.07 l -51.65,51.64 c -34.07905,34.65981 -35.08146,89.4876 -0.71082,123.85824 34.37063,34.37063 91.26101,35.43081 125.92082,1.35176 z"
       fill="url(#a56fad6dd-800d-41d1-9770-cc637af349a1)"
       id="path1"
       transform="translate(-489.16,-297)"
       sodipodi:nodetypes="ccccsccccscccscc"
       style="fill:url(#a56fad6dd-800d-41d1-9770-cc637af349a1)" />
    <path
       d="m 738.85,374.73 c -35.13213,-33.97268 -91.13299,-33.10039 -125.19,1.95 l -45.12,46.55 c -6.7301,6.9354 -6.55993,18.01457 0.38,24.74 6.93881,6.73123 18.02111,6.56108 24.75,-0.38 L 638.79,401 c 20.52168,-21.54131 54.66962,-22.22014 76.03122,-1.5115 21.3616,20.70863 21.74284,54.86119 0.84878,76.0415 l -57.31,59.11 c -10,10.27 -25.7,18.16 -39.67,20.38 0,0 -15,3.23 -38,1.59 12.24,13.85 28.31,20.6 49.31,20.27 16.89,-0.26 27,-2 38.47,-8.11 7.98274,-4.31859 15.24604,-9.85124 21.53,-16.4 l 50.01497,-53.26503 C 773.97798,463.9585 773.91285,408.77933 738.85,374.73 Z"
       fill="url(#bc84bbc18-54ca-4103-bf4c-fb70d87e6e75)"
       id="path2"
       transform="translate(-489.16,-297)"
       sodipodi:nodetypes="ccccccsccccccccc"
       style="fill:url(#bc84bbc18-54ca-4103-bf4c-fb70d87e6e75)" />
  </g>
</svg>
